<svg width="178" height="123" viewBox="0 0 178 123" fill="none" xmlns="http://www.w3.org/2000/svg">
<rect width="10" height="20" rx="1" transform="matrix(4.71045e-08 -1 -1 7.32198e-08 109 123)" fill="#9477FF"/>
<rect width="17" height="23" rx="1" transform="matrix(4.71045e-08 -1 -1 7.32198e-08 81 123)" fill="#E97D30"/>
<rect width="35" height="23" rx="1" transform="matrix(4.71045e-08 -1 -1 7.32198e-08 51 123)" fill="#42B883"/>
<rect width="80" height="20" rx="1" transform="matrix(4.71045e-08 -1 -1 7.32198e-08 20 123)" fill="#0CDAFF"/>
<path d="M136.74 96.831C140.368 96.2109 138.302 91.9665 135.887 88.686C133.515 86.0001 128.39 80.9323 125.792 79.6908C120.889 77.3476 113.253 77.6907 119.397 87.1708C121.838 90.9383 128.82 98.1844 136.74 96.831Z" fill="#825FFF"/>
<path d="M158.88 73.4223C158.88 76.4634 163.268 79.2294 164.583 83.2913C165.543 86.2572 164.116 93.9611 165.456 97.1092C168.379 103.975 174.198 105.576 168.477 105.576C147.789 105.576 141.469 81.1663 141.469 71.0615C141.469 60.9568 155.885 41.1704 175.25 43.3764C181.493 44.0876 175.663 44.5957 169.987 51.8437C167.422 55.1189 169.398 61.6019 167.424 64.9336C164.572 69.745 158.88 69.7493 158.88 73.4223Z" fill="#9477FF"/>
<path d="M135.66 52.3013C134.571 61.6605 111.834 35.3426 102.411 35.3426C92.9889 35.3426 79.4559 25.7493 79.4559 16.3269C79.4559 6.90458 95.3378 -1.88914 107.055 0.353599C115.131 1.89958 106.734 8.72927 111.265 16.3269C115.641 23.6641 130.031 18.4323 128.108 34.4057C127.205 41.9132 137.583 35.7787 135.66 52.3013Z" fill="#9477FF"/>
<path d="M63.2456 101.329C64.6395 103.289 67.2419 101.319 67.2419 101.319C67.2419 101.319 74.4402 96.7657 72.7284 90.0687C71.6222 85.7408 66.5184 77.8514 62.0577 88.2301C60.2938 92.3342 60.6574 97.6877 63.2456 101.329Z" fill="#825FFF"/>
<path d="M21.0384 80.4681C20.4874 84.5572 26.0556 85.1373 26.0556 85.1373C26.0556 85.1373 39.8828 87.1811 45.5839 76.787C49.2682 70.0699 53.1214 55.1834 35.3756 62.9583C28.3584 66.0327 22.0615 72.8755 21.0384 80.4681Z" fill="#9477FF"/>
<path d="M146.346 60.7515C155.876 70.1651 148.844 80.799 135.081 82.266C113.257 92.3819 100.424 93.536 80.8486 92.7565C54.8746 92.7565 28.7384 75.4999 28.7384 53.4866C28.7384 31.4733 49.3625 13.6254 72.9546 13.6254C90.5615 13.6254 106.772 19.144 124.555 37.7405C129.204 43.0865 140.486 55.5659 146.346 60.7515Z" fill="#ECE7FB"/>
<circle cx="74.8854" cy="45.4114" r="11.0471" fill="#464445"/>
<circle cx="72.9598" cy="38.9918" r="3.60274" fill="white"/>
<path d="M150.042 73.1949C150.042 73.1949 148.081 79.717 138.062 81.7224C116.909 85.9563 122.776 93.0344 87.5597 93.0344C63.4681 93.0344 51.3769 87.0115 41.0008 78.036C40.0556 77.2184 63.5681 76.2482 72.0854 78.4786C90.8118 83.3824 106.67 82.9362 112.878 82.9362C100.062 82.9362 129.078 82.9362 112.878 82.9362C129.739 82.9362 150.042 73.1949 150.042 73.1949Z" fill="#E2D8FF"/>
<path d="M138.339 85.6706C139.024 90.7536 132.102 91.4746 132.102 91.4746C132.102 91.4746 114.915 94.0152 107.828 81.0949C103.248 72.7453 98.4585 54.2408 120.517 63.9053C129.24 67.7269 137.067 76.2328 138.339 85.6706Z" fill="#9477FF"/>
<path d="M114.196 104.738C117.825 104.118 115.482 96.3941 113.066 93.1136C110.694 90.4277 105.847 88.8395 103.249 87.598C98.3462 85.2548 90.71 85.5979 96.8536 95.078C99.2952 98.8455 106.277 106.092 114.196 104.738Z" fill="#8867FF"/>
<ellipse cx="36.3489" cy="43.6735" rx="6.5491" ry="9.97861" transform="rotate(6.33721 36.3489 43.6735)" fill="#464445"/>
<circle cx="37.7447" cy="37.4892" r="2.49675" fill="white"/>
<g filter="url(#filter0_g_47_55)">
<ellipse cx="80.1829" cy="61.0935" rx="6.46098" ry="3.34387" transform="rotate(-15 80.1829 61.0935)" fill="#FFB0AA" fill-opacity="0.26"/>
</g>
<g filter="url(#filter1_g_47_55)">
<ellipse cx="34.0762" cy="57.6723" rx="4.16442" ry="2.02718" transform="rotate(20.5183 34.0762 57.6723)" fill="#FFB0AA" fill-opacity="0.26"/>
</g>
<path d="M47.9958 66.4442L51.665 68.2888L54.8266 66.382C54.9894 66.2838 55.1769 66.234 55.367 66.2386L58.9927 66.3253L61.1902 62.9088" stroke="#9477FF" stroke-opacity="0.36" stroke-width="2" stroke-linecap="round"/>
<defs>
<filter id="filter0_g_47_55" x="69.6816" y="53.2556" width="21.0027" height="15.6758" filterUnits="userSpaceOnUse" color-interpolation-filters="sRGB">
<feFlood flood-opacity="0" result="BackgroundImageFix"/>
<feBlend mode="normal" in="SourceGraphic" in2="BackgroundImageFix" result="shape"/>
<feTurbulence type="fractalNoise" baseFrequency="0.99900001287460327 0.99900001287460327" numOctaves="3" seed="9950" />
<feDisplacementMap in="shape" scale="8.3999996185302734" xChannelSelector="R" yChannelSelector="G" result="displacedImage" width="100%" height="100%" />
<feMerge result="effect1_texture_47_55">
<feMergeNode in="displacedImage"/>
</feMerge>
</filter>
<filter id="filter1_g_47_55" x="25.9111" y="51.0773" width="16.3302" height="13.1899" filterUnits="userSpaceOnUse" color-interpolation-filters="sRGB">
<feFlood flood-opacity="0" result="BackgroundImageFix"/>
<feBlend mode="normal" in="SourceGraphic" in2="BackgroundImageFix" result="shape"/>
<feTurbulence type="fractalNoise" baseFrequency="0.99900001287460327 0.99900001287460327" numOctaves="3" seed="9950" />
<feDisplacementMap in="shape" scale="8.3999996185302734" xChannelSelector="R" yChannelSelector="G" result="displacedImage" width="100%" height="100%" />
<feMerge result="effect1_texture_47_55">
<feMergeNode in="displacedImage"/>
</feMerge>
</filter>
</defs>
</svg>
